<?xml version="1.0" encoding="utf-8" standalone="yes"?>
<svg xmlns="http://www.w3.org/2000/svg" xmlns:xlink="http://www.w3.org/1999/xlink" version="1.1"
width="390px" height="390px" viewBox="-18 -120 135 135">
<title>Probability distribution function of log-normal distribution</title>
<defs>
	<pattern id="grid" width="20" height="15" patternUnits="userSpaceOnUse">
		<path d="M0,15v-15h20v15h-20" fill="none" stroke="#555" stroke-width=".25"/>
	</pattern>
</defs>
<rect y="-120" width="130" height="120" fill="url(#grid)"/>
<g font-size="6" stroke="none" fill="black" text-anchor="middle" font-family="New Century Schoolbook">
	<text y="6"><tspan x="0">0</tspan><tspan x="20">0.5</tspan><tspan x="40">1.0</tspan><tspan x="60">1.5</tspan><tspan x="80">2.0</tspan><tspan x="100">2.5</tspan></text>
	<text x="-5" y="0">0</text><text x="-5" y="-28">0.5</text><text x="-5" y="-58">1.0</text><text x="-5" y="-88">1.5</text>
	<g font-size="8"><text font-style="italic" x="60" y="12">x</text><text x="-12" y="-60" transform="rotate(-90,-12,-60)">PDF</text></g>
	<text fill="blue" x="95" y="-13">σ=1, μ=0</text>
	<text fill="green" x="75" y="-25">σ=0.5, μ=0</text>
	<text fill="red" x="40" y="-100">σ=0.25, μ=0</text>
</g>
<g fill="none">
	<path d="M0,0h130 M0,-120v120" stroke="black" stroke-width=".75"/>
	<path d="M0.4,0 Q 3.4,-13 6.4,-28 9.4,-38 12,-39 15,-40 18,-39 21,-37 24,-35 27,-33 30,-30 33,-28 36,-26 39,-24 42,-23 45,-21 48,-20 51,-18 54,-17 57,-16 60,-15 63,-14 66,-13 69,-12 72,-11 75,-10 78,-9.8 81,-9.2 84,-8.6 87,-8.1 90,-7.6 93,-7.2 96,-6.8 99,-6.4 100,-6 110,-5.7 110,-5.4 120,-4.6 120,-4.4" stroke="blue"/>
	<path d="M0.4,0 Q 3.4,0.17 6.4,-0.36 9.4,-0.96 12,-9.8 15,-19 18,-31 21,-42 24,-48 27,-54 30,-54 33,-55 36,-52 39,-49 42,-45 45,-41 48,-37 51,-33 54,-29 57,-26 60,-23 63,-20 66,-17 69,-15 72,-13 75,-11 78,-10 81,-8.6 84,-7.5 87,-6.5 90,-5.7 93,-4.9 96,-4.3 99,-3.7 100,-3.2 110,-2.8 110,-2.5 120,-1.6 120,-1.4" stroke="green"/>
	<path d="M0,0 H8 Q 10,0 13,0 15,0.17 17,-0.75 19,-1.3 22,-9.2 24,-18 26,-36 29,-56 31,-73 33,-91 36,-97 38,-100 40,-95 42,-89 45,-77 47,-66 49,-54 52,-43 54,-35 56,-26 59,-20 61,-15 63,-11 65,-8 68,-6.1 70,-4.2 72,-3.2 75,-2.1 77,-1.6 79,-1.1 82,-0.8 84,-0.53 86,-0.4 88,-0.26 91,-0.2 93,-0.13 95,-0.1 98,-0.062 100,0 L120,0" stroke="red"/>
</g>
</svg>