<?xml version="1.0" standalone="no"?>
<!DOCTYPE svg PUBLIC "-//W3C//DTD SVG 20010904//EN"
 "http://www.w3.org/TR/2001/REC-SVG-20010904/DTD/svg10.dtd">
<svg version="1.0" xmlns="http://www.w3.org/2000/svg"
     width="278.000000pt" height="222.000000pt" viewBox="0 0 278.000000 222.000000"
     preserveAspectRatio="xMidYMid meet">
  <metadata>
    Created by potrace 1.16, written by Peter Selinger 2001-2019
  </metadata>
  <g transform="translate(0.000000,222.000000) scale(0.100000,-0.100000)"
     fill="#000000" stroke="none">
    <path d="M0 1110 l0 -1110 1390 0 1390 0 0 1110 0 1110 -1390 0 -1390 0 0
-1110z m1600 615 c120 -32 239 -113 308 -209 l33 -46 -55 0 c-52 0 -57 2 -105
49 -248 241 -653 124 -755 -218 -9 -30 -16 -70 -16 -88 l0 -33 -58 0 c-95 0
-157 -24 -217 -84 -67 -67 -89 -129 -83 -230 6 -92 43 -165 108 -212 81 -59
83 -59 685 -59 l550 0 43 23 c45 24 102 100 102 136 0 55 10 66 58 66 l45 0
-6 -54 c-10 -100 -72 -187 -165 -233 l-57 -28 -550 -3 c-576 -3 -618 -1 -699
40 -61 31 -143 115 -173 177 -26 51 -28 66 -28 171 0 108 2 119 30 173 38 77
127 159 200 186 31 12 63 21 73 21 44 0 60 12 67 48 3 21 22 70 42 111 66 138
210 255 363 295 72 19 191 20 260 1z m-321 -360 c73 -37 43 -145 -40 -145 -78
0 -103 100 -35 141 37 23 39 23 75 4z m661 -15 c11 -11 20 -33 20 -50 0 -17
-9 -39 -20 -50 -43 -43 -120 -11 -120 50 0 17 9 39 20 50 11 11 33 20 50 20
17 0 39 -9 50 -20z m-188 -207 l148 -148 140 140 140 140 32 -33 33 -32 -173
-172 -172 -173 -150 150 -150 150 -193 -193 -192 -192 -103 103 -102 102 32
33 33 32 70 -70 70 -70 190 190 c104 105 192 190 195 190 3 0 71 -66 152 -147z"/>
  </g>
</svg>
