<svg xmlns="http://www.w3.org/2000/svg" viewBox="0 0 197.24 192.26">
	<g>
		<path d="M128.53,172H68.36a7.6,7.6,0,0,1-6-2.85L24.57,121.76A7.52,7.52,0,0,1,23.14,115l14.6-58a9.21,9.21,0,0,1,3.92-5l53.4-26.7a7.54,7.54,0,0,1,6.77,0L155.94,52a8.19,8.19,0,0,1,4.28,5.34l13.88,58c.71,2.49,0,4.62-1.42,6.76l-38.1,47A8.77,8.77,0,0,1,128.53,172Zm-59.81-7.84h59.45l38.1-47.35-13.89-58L98.62,32,45.22,58.75,31,116.78Z" style="fill: #0091da" />
		<g>
			<polygon points="167.34 40.94 174.1 35.25 102.54 0 102.54 8.9 167.34 40.94" style="fill: #00c1d5" />
			<polygon points="10.32 124.26 1.78 126.04 51.63 188.7 55.54 180.87 10.32 124.26" style="fill: #78be20" />
			<polygon points="94.71 8.9 94.71 0 23.85 35.25 30.62 40.94 94.71 8.9" style="fill: #00c1d5" />
			<polygon points="25.99 47.71 18.87 41.66 0 118.2 8.9 116.42 25.99 47.71" style="fill: #1d428a" />
			<polygon points="188.34 116.42 197.24 118.2 179.09 41.66 172.32 47.35 188.34 116.42" style="fill: #1d428a" />
			<polygon points="186.56 124.26 140.99 180.87 144.91 188.7 195.46 126.04 186.56 124.26" style="fill: #78be20" />
			<polygon points="62.66 184.07 58.75 192.26 137.79 192.26 133.87 184.07 62.66 184.07" style="fill: #00c1d5" />
		</g>
	</g>
</svg>